<?xml version="1.0" encoding="iso-8859-1"?>
<!-- Generator: Adobe Illustrator 19.0.0, SVG Export Plug-In . SVG Version: 6.00 Build 0)  -->
<svg version="1.1" id="Layer_1" xmlns="http://www.w3.org/2000/svg" xmlns:xlink="http://www.w3.org/1999/xlink" x="0px" y="0px"
	 viewBox="0 0 512 512" style="enable-background:new 0 0 512 512;" xml:space="preserve">
<path style="fill:#B3D8F4;" d="M253.388,504.163L253.388,504.163c-57.709,0-104.49-46.782-104.49-104.49V112.327
	c0-57.708,46.781-104.49,104.49-104.49l0,0c57.708,0,104.49,46.781,104.49,104.49v287.347
	C357.878,457.381,311.095,504.163,253.388,504.163z"/>
<circle style="fill:#3D9AE2;" cx="253.388" cy="159.869" r="67.918"/>
<g>
	<path style="fill:#FFFFFF;" d="M253.388,180.767H33.959v-41.796h219.429c11.542,0,20.898,9.356,20.898,20.898l0,0
		C274.286,171.411,264.93,180.767,253.388,180.767z"/>
	<path style="fill:#FFFFFF;" d="M457.143,398.106H258.612c-11.542,0-20.898-9.356-20.898-20.898v-94.041
		c0-11.542,9.356-20.898,20.898-20.898h198.531c11.542,0,20.898,9.356,20.898,20.898v94.041
		C478.041,388.75,468.685,398.106,457.143,398.106z"/>
</g>
<rect x="237.714" y="309.29" style="fill:#3D9AE2;" width="240.327" height="41.796"/>
<rect x="172.408" y="363.624" style="fill:#FFFFFF;" width="15.673" height="15.673"/>
<path d="M172.408,399.673c0,44.652,36.328,80.98,80.98,80.98V464.98c-36.01,0-65.306-29.297-65.306-65.306H172.408z"/>
<path d="M253.388,496.327c-53.295,0-96.653-43.358-96.653-96.653V201.665h-15.673v198.008c0,61.937,50.39,112.327,112.327,112.327
	c54.048,0,100.481-38.504,110.406-91.555l-15.406-2.883C339.849,463.201,299.895,496.327,253.388,496.327z"/>
<path d="M156.735,112.327c0-53.295,43.358-96.653,96.653-96.653c25.827,0,50.097,10.054,68.345,28.312
	c18.255,18.245,28.308,42.516,28.308,68.342v129.045h15.673V112.327c0-30.014-11.685-58.222-32.899-79.425
	C311.611,11.685,283.402,0,253.388,0c-61.936,0-112.327,50.389-112.327,112.327v5.747h15.673V112.327z"/>
<path d="M329.143,159.869c0-41.772-33.983-75.755-75.755-75.755c-23.48,0-45.241,10.619-59.706,29.135l12.351,9.649
	c11.474-14.687,28.735-23.11,47.355-23.11c33.13,0,60.082,26.952,60.082,60.082s-26.952,60.082-60.082,60.082
	c-18.62,0-35.881-8.423-47.355-23.11l-12.351,9.649c14.466,18.516,36.227,29.135,59.706,29.135
	C295.16,235.624,329.143,201.641,329.143,159.869z"/>
<path d="M282.122,159.869c0-15.845-12.891-28.735-28.735-28.735H26.122v57.469h227.265
	C269.232,188.604,282.122,175.714,282.122,159.869z M41.796,146.808h211.592c7.202,0,13.061,5.859,13.061,13.061
	s-5.859,13.061-13.061,13.061H41.796V146.808z"/>
<path d="M457.143,254.433H258.612c-15.844,0-28.735,12.89-28.735,28.735v18.286v57.469v18.286c0,15.845,12.891,28.735,28.735,28.735
	h198.531c15.844,0,28.735-12.89,28.735-28.735v-18.286v-57.469v-18.286C485.878,267.323,472.987,254.433,457.143,254.433z
	 M470.204,377.208c0,7.202-5.859,13.061-13.061,13.061H258.612c-7.202,0-13.061-5.859-13.061-13.061v-18.286h224.653V377.208z
	 M470.204,317.127v26.122H245.551v-26.122H381.91v-15.673H245.551v-18.286c0-7.202,5.859-13.061,13.061-13.061h198.531
	c7.203,0,13.061,5.859,13.061,13.061v18.286H439.38v15.673H470.204z"/>
<rect x="402.808" y="301.453" width="15.673" height="15.673"/>
<rect x="276.375" y="366.237" width="15.673" height="15.673"/>
<rect x="312.947" y="366.237" width="15.673" height="15.673"/>
<g>
</g>
<g>
</g>
<g>
</g>
<g>
</g>
<g>
</g>
<g>
</g>
<g>
</g>
<g>
</g>
<g>
</g>
<g>
</g>
<g>
</g>
<g>
</g>
<g>
</g>
<g>
</g>
<g>
</g>
</svg>
